<?xml version="1.0" encoding="UTF-8"?> <svg xmlns="http://www.w3.org/2000/svg" height="512px" viewBox="-60 1 511 511.9995" width="512px" class=""> <g> <path d="m375.5 60c-102.152344 0-162.527344-52.9375-171.679688-57.480469-5.039062-3.359375-11.605468-3.359375-16.640624 0-8.539063 4.238281-69.953126 57.480469-171.679688 57.480469-8.285156 0-15 6.714844-15 15v172.261719c0 119.957031 76.457031 226.035156 190.257812 263.96875 1.539063.511719 3.140626.769531 4.742188.769531s3.203125-.257812 4.742188-.769531c113.800781-37.933594 190.257812-144.015625 190.257812-263.96875v-172.261719c0-8.285156-6.714844-15-15-15zm-15 187.261719c0 105.347656-66.089844 198.699219-165 233.871093-98.910156-35.171874-165-128.519531-165-233.871093v-157.621094c99.132812-4.714844 160.3125-54.28125 165-56.613281 4.601562 2.285156 66.011719 51.902344 165 56.613281zm0 0" data-original="#000000" class="active-path" data-old_color="#COPYRI" fill="#1C2C6F"></path> <path d="m120.5 257c0 41.355469 33.644531 75 75 75 26.691406 0 51.582031-14.367188 64.957031-37.488281 4.148438-7.171875 1.699219-16.347657-5.472656-20.496094s-16.347656-1.699219-20.496094 5.472656c-8.03125 13.886719-22.972656 22.511719-38.988281 22.511719-24.8125 0-45-20.1875-45-45s20.1875-45 45-45c16.015625 0 30.957031 8.625 38.988281 22.511719 4.148438 7.167969 13.324219 9.621093 20.496094 5.472656 7.167969-4.148437 9.621094-13.324219 5.472656-20.496094-13.378906-23.125-38.265625-37.488281-64.957031-37.488281-41.355469 0-75 33.644531-75 75zm0 0" data-original="#000000" class="active-path" data-old_color="#COPYRI" fill="#1C2C6F"></path> <path d="m60.5 257c0 74.4375 60.5625 135 135 135s135-60.5625 135-135c0-74.441406-60.5625-135-135-135s-135 60.558594-135 135zm240 0c0 57.898438-47.101562 105-105 105s-105-47.101562-105-105 47.101562-105 105-105 105 47.101562 105 105zm0 0" data-original="#000000" class="active-path" data-old_color="#COPYRI" fill="#1C2C6F"></path> </g> </svg> 